# xmcd CD database file
#
# Track frame offsets:
#	150
#	19509
#	37809
#	66691
#	82803
#	99549
#	119112
#	136768
#	155351
#	172288
#	191861
#	215025
#
# Disc length: 3173 seconds
#
# Revision: 0
# Processed by: cddbd v1.5.2PL0 Copyright (c) Steve Scherf et al.
# Submitted via: CDex 1.79
#
DISCID=ac0c630c
DTITLE=Tucson - Almost Ready
DYEAR=1900
DGENRE=Country
TTITLE0=Almost ready
TTITLE1=Lonesome Loser
TTITLE2=Hotel California
TTITLE3=Fly
TTITLE4=Wild Women
TTITLE5=It's Not A Wonder
TTITLE6=Wait A Minute
TTITLE7=Hurts So Good
TTITLE8=Willin'
TTITLE9=Sweet Home Alabama
TTITLE10=Heartache Tonight
TTITLE11=Can't You See
EXTD=
EXTT0=
EXTT1=
EXTT2=
EXTT3=
EXTT4=
EXTT5=
EXTT6=
EXTT7=
EXTT8=
EXTT9=
EXTT10=
EXTT11=
PLAYORDER=
